<svg width="960" height="760" viewBox="0 0 960 760" fill="none" xmlns="http://www.w3.org/2000/svg" role="img" aria-labelledby="title desc">
  <title id="title">Harvard Medical School locator map</title>
  <desc id="desc">Stylized campus locator highlighting Veritas Science Center (VSC) within Harvard Medical School in Boston's Longwood Medical Area.</desc>
  <rect width="960" height="760" fill="#0B131B"/>
  <g opacity="0.18">
    <path d="M0 112H960" stroke="#9AA8B6" stroke-width="1"/>
    <path d="M0 224H960" stroke="#9AA8B6" stroke-width="1"/>
    <path d="M0 336H960" stroke="#9AA8B6" stroke-width="1"/>
    <path d="M0 448H960" stroke="#9AA8B6" stroke-width="1"/>
    <path d="M0 560H960" stroke="#9AA8B6" stroke-width="1"/>
    <path d="M0 672H960" stroke="#9AA8B6" stroke-width="1"/>
    <path d="M128 0V760" stroke="#9AA8B6" stroke-width="1"/>
    <path d="M256 0V760" stroke="#9AA8B6" stroke-width="1"/>
    <path d="M384 0V760" stroke="#9AA8B6" stroke-width="1"/>
    <path d="M512 0V760" stroke="#9AA8B6" stroke-width="1"/>
    <path d="M640 0V760" stroke="#9AA8B6" stroke-width="1"/>
    <path d="M768 0V760" stroke="#9AA8B6" stroke-width="1"/>
    <path d="M896 0V760" stroke="#9AA8B6" stroke-width="1"/>
  </g>
  <g opacity="0.9">
    <path d="M74 555C147 512 250 486 380 476C483 468 592 465 721 480C807 490 870 513 915 545" stroke="#CCD4DC" stroke-width="36" stroke-linecap="round"/>
    <path d="M268 78C361 155 453 234 540 319C604 382 665 453 732 548" stroke="#CCD4DC" stroke-width="28" stroke-linecap="round"/>
    <path d="M248 146C360 228 480 301 604 360C689 401 780 427 873 438" stroke="#708196" stroke-width="12" stroke-linecap="round"/>
  </g>
  <g>
    <rect x="392" y="233" width="176" height="128" rx="6" fill="#13202B" stroke="#E2E8EE" stroke-opacity="0.52"/>
    <rect x="432" y="203" width="176" height="128" rx="6" fill="#172635" stroke="#E2E8EE" stroke-opacity="0.52"/>
    <rect x="470" y="281" width="166" height="118" rx="6" fill="#0E1822" stroke="#E2E8EE" stroke-opacity="0.52"/>
    <rect x="515" y="247" width="192" height="144" rx="6" fill="#1A2A38" stroke="#E2E8EE" stroke-opacity="0.52"/>
  </g>
  <g>
    <circle cx="598" cy="321" r="18" fill="#8A223E"/>
    <circle cx="598" cy="321" r="36" fill="#8A223E" fill-opacity="0.16"/>
    <circle cx="598" cy="321" r="58" fill="#8A223E" fill-opacity="0.08"/>
  </g>
  <g>
    <path d="M636 307L744 246" stroke="#E2E8EE" stroke-width="2"/>
    <path d="M630 342L814 408" stroke="#E2E8EE" stroke-width="2"/>
    <path d="M553 353L435 470" stroke="#E2E8EE" stroke-width="2"/>
    <path d="M550 301L384 210" stroke="#E2E8EE" stroke-width="2"/>
  </g>
  <g fill="#EAF0F5">
    <text x="760" y="240" font-family="Inter, Arial, sans-serif" font-size="30" font-weight="700">Harvard Medical School</text>
    <text x="760" y="276" font-family="Inter, Arial, sans-serif" font-size="18" font-weight="500" fill="#B7C3CF">Longwood Medical Area</text>
    <text x="828" y="404" font-family="Inter, Arial, sans-serif" font-size="28" font-weight="700">Veritas Science Center (VSC)</text>
    <text x="828" y="438" font-family="Inter, Arial, sans-serif" font-size="18" font-weight="500" fill="#B7C3CF">77 Avenue Louis Pasteur</text>
    <text x="228" y="198" font-family="Inter, Arial, sans-serif" font-size="22" font-weight="600" fill="#B7C3CF">Longwood Avenue</text>
    <text x="366" y="506" font-family="Inter, Arial, sans-serif" font-size="22" font-weight="600" fill="#B7C3CF">Avenue Louis Pasteur</text>
  </g>
  <rect x="38" y="36" width="182" height="64" rx="6" fill="#0F1A23" stroke="#E2E8EE" stroke-opacity="0.18"/>
  <text x="60" y="76" font-family="Inter, Arial, sans-serif" font-size="18" font-weight="700" fill="#EAF0F5">Campus locator</text>
</svg>
